<svg xmlns="http://www.w3.org/2000/svg" viewBox="0 0 64 64" width="64" height="64"><path d="M32 55.2C0 36 8 10.399999999999999 32 23.2C56 10.399999999999999 64 36 32 55.2z" fill="#C97A6E" stroke="#0F2019" stroke-width="3.5" stroke-linecap="round" stroke-linejoin="round"/><path d="M10 4Q10 10 16 10Q10 10 10 16Q10 10 4 10Q10 10 10 4z" fill="#D8A444" stroke="#0F2019" stroke-width="2" stroke-linejoin="round"/><path d="M55 5Q55 10 60 10Q55 10 55 15Q55 10 50 10Q55 10 55 5z" fill="#D8A444" stroke="#0F2019" stroke-width="2" stroke-linejoin="round"/><path d="M56 46Q56 50 60 50Q56 50 56 54Q56 50 52 50Q56 50 56 46z" fill="#D8A444" stroke="#0F2019" stroke-width="2" stroke-linejoin="round"/></svg>
