<svg xmlns="http://www.w3.org/2000/svg" viewBox="0 0 64 64" width="64" height="64">
<clipPath id="sb_finish-flag"><path d="M16 10q10-5 20 0t20 0v26q-10 5-20 0t-20 0z"/></clipPath>
<path d="M16 10q10-5 20 0t20 0v26q-10 5-20 0t-20 0z" fill="#F2EEE4"/>
<g clip-path="url(#sb_finish-flag)"><rect x="16" y="8" width="10" height="9" fill="#173226"/><rect x="36" y="8" width="10" height="9" fill="#173226"/><rect x="26" y="17" width="10" height="9" fill="#173226"/><rect x="46" y="17" width="10" height="9" fill="#173226"/><rect x="16" y="26" width="10" height="9" fill="#173226"/><rect x="36" y="26" width="10" height="9" fill="#173226"/></g>
<path d="M16 10q10-5 20 0t20 0v26q-10 5-20 0t-20 0z" fill="none" stroke="#0F2019" stroke-width="3.5" stroke-linecap="round" stroke-linejoin="round"/>
<path d="M13 8v50" stroke="#0F2019" stroke-width="8" stroke-linecap="round"/>
<path d="M13 8v50" stroke="#C9AD84" stroke-width="3.5" stroke-linecap="round"/></svg>
